<svg width="209" height="69" viewBox="0 0 209 69" fill="none" xmlns="http://www.w3.org/2000/svg">
<path d="M44.44 54L52.14 15.72H60.94L59.07 24.63L57.75 29.47H57.97C59.07 28.48 60.3167 27.6367 61.71 26.94C63.14 26.2067 64.68 25.84 66.33 25.84C68.6033 25.84 70.2533 26.445 71.28 27.655C72.3067 28.8283 72.82 30.6067 72.82 32.99C72.82 33.5767 72.7833 34.2183 72.71 34.915C72.6733 35.6117 72.5633 36.29 72.38 36.95L68.97 54H60.17L63.36 38.05C63.47 37.5367 63.5617 37.0967 63.635 36.73C63.745 36.3267 63.8 35.96 63.8 35.63C63.8 34.09 63.03 33.32 61.49 33.32C60.72 33.32 59.9683 33.5767 59.235 34.09C58.5017 34.5667 57.64 35.3367 56.65 36.4L53.24 54H44.44ZM86.1115 54.66C83.2149 54.66 81.1065 53.945 79.7865 52.515C78.5032 51.0483 77.8615 49.1967 77.8615 46.96C77.8615 46.3367 77.8982 45.7317 77.9715 45.145C78.0815 44.5217 78.1915 43.9167 78.3015 43.33L80.3915 33.32H76.8715L78.1915 26.83L82.1515 26.5L84.5715 19.46H91.9415L90.6215 26.5H96.5615L95.2415 33.32H89.0815L86.9915 43.66C86.9549 43.99 86.9182 44.3017 86.8815 44.595C86.8815 44.8517 86.8815 45.1267 86.8815 45.42C86.8815 47.0333 87.7615 47.84 89.5215 47.84C89.8515 47.84 90.1815 47.785 90.5115 47.675C90.8415 47.565 91.1715 47.4367 91.5015 47.29L93.0415 53.45C92.2715 53.7067 91.2999 53.9633 90.1265 54.22C88.9899 54.5133 87.6515 54.66 86.1115 54.66ZM96.1099 54L101.61 26.5H110.41L104.91 54H96.1099ZM107.22 22.98C106.083 22.98 105.02 22.65 104.03 21.99C103.077 21.2933 102.6 20.2667 102.6 18.91C102.6 17.59 103.113 16.435 104.14 15.445C105.167 14.455 106.413 13.96 107.88 13.96C109.053 13.96 110.117 14.3083 111.07 15.005C112.023 15.7017 112.5 16.71 112.5 18.03C112.5 19.46 111.987 20.6517 110.96 21.605C109.97 22.5217 108.723 22.98 107.22 22.98ZM111.31 54L116.81 26.5H123.96V30.02H124.18C125.463 28.92 126.838 27.9483 128.305 27.105C129.772 26.2617 131.293 25.84 132.87 25.84C134.85 25.84 136.298 26.2617 137.215 27.105C138.132 27.9117 138.81 29.03 139.25 30.46C140.68 29.14 142.165 28.04 143.705 27.16C145.245 26.28 146.803 25.84 148.38 25.84C150.653 25.84 152.303 26.445 153.33 27.655C154.357 28.8283 154.87 30.6067 154.87 32.99C154.87 34.2367 154.723 35.5567 154.43 36.95L151.02 54H142.22L145.41 38.05C145.52 37.5367 145.612 37.0967 145.685 36.73C145.795 36.3267 145.85 35.96 145.85 35.63C145.85 34.09 145.08 33.32 143.54 33.32C142.477 33.32 140.973 34.3467 139.03 36.4L135.51 54H126.71L129.9 38.05C130.01 37.5367 130.102 37.0967 130.175 36.73C130.285 36.3267 130.34 35.96 130.34 35.63C130.34 34.86 130.138 34.2917 129.735 33.925C129.332 33.5217 128.8 33.32 128.14 33.32C127.003 33.32 125.463 34.3467 123.52 36.4L120.11 54H111.31ZM169.824 54.66C167.587 54.66 165.607 54.1833 163.884 53.23C162.161 52.2767 160.804 50.92 159.814 49.16C158.861 47.3633 158.384 45.2367 158.384 42.78C158.384 40.25 158.842 37.9583 159.759 35.905C160.676 33.815 161.886 32.0183 163.389 30.515C164.892 29.0117 166.561 27.8567 168.394 27.05C170.227 26.2433 172.061 25.84 173.894 25.84C176.131 25.84 177.909 26.3167 179.229 27.27C180.586 28.2233 181.557 29.4883 182.144 31.065C182.731 32.6417 183.024 34.3833 183.024 36.29C183.024 37.61 182.841 38.9117 182.474 40.195C182.107 41.4417 181.814 42.2667 181.594 42.67H166.634C166.634 44.5767 167.184 45.9517 168.284 46.795C169.421 47.6383 170.777 48.06 172.354 48.06C173.124 48.06 173.931 47.8767 174.774 47.51C175.654 47.1433 176.387 46.74 176.974 46.3L180.054 51.8C178.954 52.57 177.542 53.2483 175.819 53.835C174.096 54.385 172.097 54.66 169.824 54.66ZM167.294 37.39H175.654C175.727 37.2067 175.782 36.9683 175.819 36.675C175.856 36.3817 175.874 36.1067 175.874 35.85C175.874 34.8967 175.654 34.1083 175.214 33.485C174.774 32.8617 173.967 32.55 172.794 32.55C171.767 32.55 170.741 32.935 169.714 33.705C168.724 34.4383 167.917 35.6667 167.294 37.39ZM185.002 54L190.502 26.5H197.652L197.432 31.89H197.652C198.715 30.13 199.962 28.6817 201.392 27.545C202.858 26.4083 204.362 25.84 205.902 25.84C206.672 25.84 207.295 25.895 207.772 26.005C208.248 26.0783 208.615 26.2067 208.872 26.39L206.012 33.98C205.645 33.76 205.187 33.6317 204.637 33.595C204.087 33.5583 203.592 33.54 203.152 33.54C202.015 33.54 200.933 33.925 199.907 34.695C198.88 35.465 197.835 36.7667 196.772 38.6L193.802 54H185.002Z" fill="#0066FF"/>
<path d="M31.0161 15.713C31.5592 15.1699 32.2039 14.7391 32.9135 14.4452C33.623 14.1513 34.3835 14 35.1516 14C35.9196 14 36.6801 14.1513 37.3897 14.4452C38.0992 14.7391 38.744 15.1699 39.287 15.713C39.8301 16.256 40.2609 16.9008 40.5548 17.6103C40.8487 18.3199 41 19.0804 41 19.8484C41 20.6165 40.8487 21.377 40.5548 22.0866C40.2609 22.7961 39.8301 23.4408 39.287 23.9839L11.3726 51.8984L0 55L3.10161 43.6274L31.0161 15.713Z" fill="#0066FF"/>
</svg>
