<svg width="16" height="18" viewBox="0 0 16 18" fill="none" xmlns="http://www.w3.org/2000/svg">
<path d="M3.11299 8.89832C3.36053 8.86074 3.60056 8.8382 3.8556 8.8382C4.10314 8.8382 4.35068 8.86074 4.60572 8.90584V2.57029C4.60572 1.88638 4.96578 1.50309 5.69339 1.50309H8.87389V5.59151C8.87389 6.68126 9.40647 7.20734 10.4866 7.20734H14.5073V13.7157C14.5073 14.4072 14.1472 14.7829 13.4196 14.7829H8.65635C8.56634 15.324 8.36381 15.8351 8.08626 16.286H13.5546C15.1674 16.286 16 15.4368 16 13.8134V6.98939C16 5.93722 15.865 5.45623 15.2124 4.78736L11.2893 0.79664C10.6517 0.150309 10.1266 0 9.18143 0H5.55837C3.95312 0 3.11299 0.849248 3.11299 2.48011V8.89832ZM10.1791 5.44872V1.6985L14.3047 5.89213H10.6292C10.3141 5.89213 10.1791 5.75685 10.1791 5.44872ZM3.8631 17.6538C5.96343 17.6538 7.72621 15.8952 7.72621 13.7759C7.72621 11.6565 5.97843 9.90539 3.8631 9.90539C1.74777 9.90539 0 11.6565 0 13.7759C0 15.9027 1.74777 17.6538 3.8631 17.6538ZM1.41022 13.7759C1.41022 13.4677 1.62025 13.2648 1.9278 13.2648H3.34552V11.8444C3.34552 11.5363 3.54805 11.3258 3.8631 11.3258C4.17815 11.3258 4.38068 11.5363 4.38068 11.8444V13.2648H5.79841C6.10595 13.2648 6.30849 13.4677 6.30849 13.7759C6.30849 14.0915 6.10595 14.2944 5.79841 14.2944H4.38068V15.7224C4.38068 16.0305 4.17815 16.2409 3.8631 16.2409C3.54805 16.2409 3.34552 16.0305 3.34552 15.7224V14.2944H1.9278C1.62025 14.2944 1.41022 14.0915 1.41022 13.7759Z" fill="#0066FF"/>
</svg>
