<svg width="11" height="21" viewBox="0 0 11 21" fill="none" xmlns="http://www.w3.org/2000/svg">
<path d="M2.1763 0.40248L10.5583 9.41094C10.8599 9.73055 11 10.0857 11 10.5C11 10.9143 10.8492 11.2931 10.5583 11.6009L2.1763 20.5975C1.9285 20.858 1.63761 21 1.28208 21C0.560237 21 2.15043e-06 20.3844 2.14111e-06 19.6032C2.1366e-06 19.2244 0.140061 18.8574 0.387857 18.5851L7.94026 10.5118L0.387857 2.41488C0.14006 2.14262 1.92866e-06 1.78749 1.92401e-06 1.39684C1.91469e-06 0.615558 0.560237 1.24493e-07 1.28208 1.15885e-07C1.62684 1.11774e-07 1.9285 0.142052 2.1763 0.40248Z" fill="#B7D4FF"/>
</svg>
