<svg width="13" height="17" viewBox="0 0 13 17" fill="none" xmlns="http://www.w3.org/2000/svg">
<path d="M2.46682 17H10.5332C12.1601 17 13 16.1135 13 14.419V7.2958C13 6.19751 12.8638 5.69543 12.2055 4.99723L8.24796 0.831564C7.60477 0.156899 7.07509 0 6.12165 0H2.46682C0.847497 0 0 0.886479 0 2.58883V14.419C0 16.1135 0.847497 17 2.46682 17ZM2.59546 15.431C1.86903 15.431 1.50582 15.0388 1.50582 14.317V2.68297C1.50582 1.96908 1.86903 1.56899 2.60303 1.56899H5.81141V5.83664C5.81141 6.97416 6.34866 7.5233 7.4383 7.5233H11.4942V14.317C11.4942 15.0388 11.131 15.431 10.397 15.431H2.59546ZM7.58207 6.15044C7.26426 6.15044 7.12806 6.00923 7.12806 5.68759V1.77296L11.2899 6.15044H7.58207Z" fill="#84B4FC"/>
</svg>
