<svg width="35" height="35" viewBox="0 0 35 35" fill="none" xmlns="http://www.w3.org/2000/svg">
<g clip-path="url(#clip0_2029_154)">
<path d="M17.5 34.5C26.8888 34.5 34.5 26.8888 34.5 17.5C34.5 8.11116 26.8888 0.5 17.5 0.5C8.11116 0.5 0.5 8.11116 0.5 17.5C0.5 26.8888 8.11116 34.5 17.5 34.5Z" stroke="#0066FF"/>
<path d="M20.6894 22.5492C20.7482 22.6079 20.7812 22.6878 20.7812 22.7711C20.7812 22.8544 20.7482 22.9342 20.6894 22.9929L20.0308 23.6553C19.9745 23.7157 19.8958 23.75 19.8134 23.75C19.731 23.75 19.6523 23.7157 19.596 23.6553L13.8867 17.9124C13.7993 17.8246 13.7501 17.7055 13.75 17.5812V17.4188C13.7501 17.2945 13.7993 17.1754 13.8867 17.0876L19.596 11.3447C19.6523 11.2843 19.731 11.25 19.8134 11.25C19.8958 11.25 19.9745 11.2843 20.0308 11.3447L20.6894 12.0071C20.7482 12.0658 20.7812 12.1456 20.7812 12.2289C20.7812 12.3122 20.7482 12.3921 20.6894 12.4508L15.6697 17.5L20.6894 22.5492Z" fill="#0066FF"/>
</g>
<defs>
<clipPath id="clip0_2029_154">
<rect width="35" height="35" fill="white"/>
</clipPath>
</defs>
</svg>
