<svg width="25" height="20" viewBox="0 0 25 20" fill="none" xmlns="http://www.w3.org/2000/svg">
<path d="M3.78384 14.6542H21.2543L22.541 9.20949C22.5505 9.20949 22.5696 9.20949 22.5886 9.20949C23.9135 9.20949 25 8.083 25 6.6996C25 5.32609 23.923 4.1996 22.5886 4.1996C21.2543 4.1996 20.1773 5.33597 20.1773 6.6996C20.1773 7.0751 20.2535 7.44071 20.3965 7.75692L17.6325 9.82213C17.3465 10.0296 17.1464 9.96047 16.9939 9.72332L13.7057 4.68379C14.43 4.24901 14.9257 3.42885 14.9257 2.5C14.9257 1.12648 13.8391 0 12.5143 0C11.1704 0 10.0934 1.12648 10.0934 2.5C10.0934 3.42885 10.589 4.24901 11.3134 4.68379L8.02516 9.72332C7.87266 9.95059 7.70111 10.0198 7.4247 9.81225L4.62257 7.71739C4.756 7.41107 4.83225 7.06522 4.83225 6.6996C4.83225 5.33597 3.74571 4.1996 2.42089 4.1996C1.08654 4.1996 0 5.32609 0 6.6996C0 8.083 1.08654 9.20949 2.42089 9.20949C2.43995 9.20949 2.46855 9.20949 2.48761 9.20949L3.78384 14.6542ZM4.14602 16.2253L4.46054 17.5395C4.85132 19.17 5.70911 20 7.34846 20H17.6801C19.3195 20 20.1773 19.1897 20.5585 17.5395L20.873 16.2253H4.14602Z" fill="#84B4FC"/>
</svg>
