<svg width="24" height="22" viewBox="0 0 24 22" fill="none" xmlns="http://www.w3.org/2000/svg">
<path d="M22.9395 4.52746L14.3525 0.598754C13.4297 0.176879 12.6738 -0.0164808 11.9355 0.00109736C11.1973 -0.0164808 10.4414 0.176879 9.51855 0.598754L0.931641 4.52746C0.316406 4.79993 0 5.30969 0 5.82825C0 6.35559 0.316406 6.85657 0.931641 7.12903L4.33301 8.66711L10.0371 6.00403C10.002 5.9425 9.98438 5.88977 9.98438 5.82825C9.98438 5.18664 10.96 4.72961 11.9619 4.72961C12.9727 4.72961 13.9395 5.18664 13.9395 5.82825C13.9395 6.48743 12.9727 6.95325 11.9619 6.95325C11.6543 6.95325 11.3379 6.9093 11.0566 6.82141L5.7041 9.3175L9.51855 11.0665C10.4414 11.4884 11.1973 11.673 11.9355 11.6642C12.6738 11.673 13.4297 11.4884 14.3525 11.0665L22.9395 7.12903C23.5547 6.84778 23.8711 6.35559 23.8711 5.82825C23.8711 5.30969 23.5547 4.79993 22.9395 4.52746ZM5.66895 10.7238V15.8654C7.19824 16.7794 9.36914 17.3331 11.9355 17.3331C17.0947 17.3331 20.6367 15.1095 20.6367 12.3673V9.59875L14.8887 12.2355C13.8252 12.7189 12.8584 12.965 11.9355 12.9562C11.0215 12.965 10.0459 12.7189 8.98242 12.2355L5.66895 10.7238ZM3.23438 9.60754V12.3673C3.23438 13.132 3.63867 14.0372 4.36816 14.8107V10.1261L3.23438 9.60754ZM3.59473 17.9484V20.2247C3.59473 20.9718 4.08691 21.464 4.83398 21.464H5.20312C5.9502 21.464 6.43359 20.9718 6.43359 20.2247V17.9484C6.43359 17.3683 6.14355 16.9464 5.66895 16.7794V15.8654C5.15918 15.5577 4.71973 15.2062 4.36816 14.8107V16.7794C3.89355 16.9376 3.59473 17.3683 3.59473 17.9484Z" fill="#84B4FC"/>
</svg>
