<svg width="22" height="30" viewBox="0 0 22 30" fill="none" xmlns="http://www.w3.org/2000/svg">
<path d="M22 28.4561C22 27.5779 21.3621 26.9122 20.4832 26.9122H11.1418C11.5245 26.8697 11.893 26.6997 12.1765 26.4023L21.5039 17.068C21.8441 16.728 22 16.3456 22 15.9207C22 15.0425 21.3479 14.3909 20.4832 14.3909C20.0438 14.3909 19.6469 14.5751 19.3634 14.8584L16.1314 18.0453L12.4601 22.153L12.5735 19.0935V1.60057C12.5735 0.651558 11.9356 0 11 0C10.0644 0 9.42655 0.651558 9.42655 1.60057V19.0935L9.53995 22.1388L5.86856 18.0453L2.6366 14.8584C2.35309 14.5751 1.95619 14.3909 1.50258 14.3909C0.637887 14.3909 0 15.0425 0 15.9207C0 16.3456 0.155928 16.728 0.496134 17.068L9.82345 26.4023C10.107 26.6997 10.4755 26.8697 10.8582 26.9122H1.5451C0.652062 26.9122 0 27.5779 0 28.4561C0 29.3343 0.652062 30 1.5451 30H20.4832C21.3621 30 22 29.3343 22 28.4561Z" fill="#84B4FC"/>
</svg>
