<svg width="28" height="28" viewBox="0 0 28 28" fill="none" xmlns="http://www.w3.org/2000/svg">
<path d="M0.557632 24.6307C-0.171388 25.3597 -0.206103 26.6614 0.574989 27.4251C1.33872 28.1887 2.64054 28.1714 3.36956 27.4424L13.9924 16.803L24.6326 27.4424C25.379 28.1887 26.6635 28.1887 27.4272 27.4251C28.1736 26.644 28.1909 25.377 27.4272 24.6307L16.8043 13.9913L27.4272 3.3693C28.1909 2.62298 28.1909 1.33862 27.4272 0.574944C26.6461 -0.171374 25.379 -0.18873 24.6326 0.557588L13.9924 11.197L3.36956 0.557588C2.64054 -0.171374 1.32137 -0.206087 0.574989 0.574944C-0.188745 1.33862 -0.171388 2.64034 0.557632 3.3693L11.1978 13.9913L0.557632 24.6307Z" fill="#B3B3B3"/>
</svg>
