<svg width="179" height="57" viewBox="0 0 179 57" fill="none" xmlns="http://www.w3.org/2000/svg">
<g filter="url(#filter0_d_175_286)">
<path d="M40.36 44L46.66 12.68H53.86L52.33 19.97L51.25 23.93H51.43C52.33 23.12 53.35 22.43 54.49 21.86C55.66 21.26 56.92 20.96 58.27 20.96C60.13 20.96 61.48 21.455 62.32 22.445C63.16 23.405 63.58 24.86 63.58 26.81C63.58 27.29 63.55 27.815 63.49 28.385C63.46 28.955 63.37 29.51 63.22 30.05L60.43 44H53.23L55.84 30.95C55.93 30.53 56.005 30.17 56.065 29.87C56.155 29.54 56.2 29.24 56.2 28.97C56.2 27.71 55.57 27.08 54.31 27.08C53.68 27.08 53.065 27.29 52.465 27.71C51.865 28.1 51.16 28.73 50.35 29.6L47.56 44H40.36ZM74.4549 44.54C72.0849 44.54 70.3599 43.955 69.2799 42.785C68.2299 41.585 67.7049 40.07 67.7049 38.24C67.7049 37.73 67.7349 37.235 67.7949 36.755C67.8849 36.245 67.9749 35.75 68.0649 35.27L69.7749 27.08H66.8949L67.9749 21.77L71.2149 21.5L73.1949 15.74H79.2249L78.1449 21.5H83.0049L81.9249 27.08H76.8849L75.1749 35.54C75.1449 35.81 75.1149 36.065 75.0849 36.305C75.0849 36.515 75.0849 36.74 75.0849 36.98C75.0849 38.3 75.8049 38.96 77.2449 38.96C77.5149 38.96 77.7849 38.915 78.0549 38.825C78.3249 38.735 78.5949 38.63 78.8649 38.51L80.1249 43.55C79.4949 43.76 78.6999 43.97 77.7399 44.18C76.8099 44.42 75.7149 44.54 74.4549 44.54ZM82.6354 44L87.1354 21.5H94.3354L89.8354 44H82.6354ZM91.7254 18.62C90.7954 18.62 89.9254 18.35 89.1154 17.81C88.3354 17.24 87.9454 16.4 87.9454 15.29C87.9454 14.21 88.3654 13.265 89.2054 12.455C90.0454 11.645 91.0654 11.24 92.2654 11.24C93.2254 11.24 94.0954 11.525 94.8754 12.095C95.6554 12.665 96.0454 13.49 96.0454 14.57C96.0454 15.74 95.6254 16.715 94.7854 17.495C93.9754 18.245 92.9554 18.62 91.7254 18.62ZM95.0719 44L99.5719 21.5H105.422V24.38H105.602C106.652 23.48 107.777 22.685 108.977 21.995C110.177 21.305 111.422 20.96 112.712 20.96C114.332 20.96 115.517 21.305 116.267 21.995C117.017 22.655 117.572 23.57 117.932 24.74C119.102 23.66 120.317 22.76 121.577 22.04C122.837 21.32 124.112 20.96 125.402 20.96C127.262 20.96 128.612 21.455 129.452 22.445C130.292 23.405 130.712 24.86 130.712 26.81C130.712 27.83 130.592 28.91 130.352 30.05L127.562 44H120.362L122.972 30.95C123.062 30.53 123.137 30.17 123.197 29.87C123.287 29.54 123.332 29.24 123.332 28.97C123.332 27.71 122.702 27.08 121.442 27.08C120.572 27.08 119.342 27.92 117.752 29.6L114.872 44H107.672L110.282 30.95C110.372 30.53 110.447 30.17 110.507 29.87C110.597 29.54 110.642 29.24 110.642 28.97C110.642 28.34 110.477 27.875 110.147 27.575C109.817 27.245 109.382 27.08 108.842 27.08C107.912 27.08 106.652 27.92 105.062 29.6L102.272 44H95.0719ZM142.947 44.54C141.117 44.54 139.497 44.15 138.087 43.37C136.677 42.59 135.567 41.48 134.757 40.04C133.977 38.57 133.587 36.83 133.587 34.82C133.587 32.75 133.962 30.875 134.712 29.195C135.462 27.485 136.452 26.015 137.682 24.785C138.912 23.555 140.277 22.61 141.777 21.95C143.277 21.29 144.777 20.96 146.277 20.96C148.107 20.96 149.562 21.35 150.642 22.13C151.752 22.91 152.547 23.945 153.027 25.235C153.507 26.525 153.747 27.95 153.747 29.51C153.747 30.59 153.597 31.655 153.297 32.705C152.997 33.725 152.757 34.4 152.577 34.73H140.337C140.337 36.29 140.787 37.415 141.687 38.105C142.617 38.795 143.727 39.14 145.017 39.14C145.647 39.14 146.307 38.99 146.997 38.69C147.717 38.39 148.317 38.06 148.797 37.7L151.317 42.2C150.417 42.83 149.262 43.385 147.852 43.865C146.442 44.315 144.807 44.54 142.947 44.54ZM140.877 30.41H147.717C147.777 30.26 147.822 30.065 147.852 29.825C147.882 29.585 147.897 29.36 147.897 29.15C147.897 28.37 147.717 27.725 147.357 27.215C146.997 26.705 146.337 26.45 145.377 26.45C144.537 26.45 143.697 26.765 142.857 27.395C142.047 27.995 141.387 29 140.877 30.41ZM155.365 44L159.865 21.5H165.715L165.535 25.91H165.715C166.585 24.47 167.605 23.285 168.775 22.355C169.975 21.425 171.205 20.96 172.465 20.96C173.095 20.96 173.605 21.005 173.995 21.095C174.385 21.155 174.685 21.26 174.895 21.41L172.555 27.62C172.255 27.44 171.88 27.335 171.43 27.305C170.98 27.275 170.575 27.26 170.215 27.26C169.285 27.26 168.4 27.575 167.56 28.205C166.72 28.835 165.865 29.9 164.995 31.4L162.565 44H155.365Z" fill="white"/>
<path d="M29.2077 12.337C29.6315 11.9131 30.1347 11.5769 30.6885 11.3475C31.2424 11.1181 31.8359 11 32.4354 11C33.0348 11 33.6284 11.1181 34.1822 11.3475C34.736 11.5769 35.2392 11.9131 35.663 12.337C36.0869 12.7608 36.4231 13.264 36.6525 13.8178C36.8819 14.3716 37 14.9652 37 15.5646C37 16.1641 36.8819 16.7576 36.6525 17.3115C36.4231 17.8653 36.0869 18.3685 35.663 18.7923L13.8761 40.5792L5 43L7.42077 34.1239L29.2077 12.337Z" stroke="white" stroke-width="2" stroke-linecap="round" stroke-linejoin="round"/>
</g>
<defs>
<filter id="filter0_d_175_286" x="0" y="10" width="178.895" height="42.54" filterUnits="userSpaceOnUse" color-interpolation-filters="sRGB">
<feFlood flood-opacity="0" result="BackgroundImageFix"/>
<feColorMatrix in="SourceAlpha" type="matrix" values="0 0 0 0 0 0 0 0 0 0 0 0 0 0 0 0 0 0 127 0" result="hardAlpha"/>
<feOffset dy="4"/>
<feGaussianBlur stdDeviation="2"/>
<feComposite in2="hardAlpha" operator="out"/>
<feColorMatrix type="matrix" values="0 0 0 0 0 0 0 0 0 0 0 0 0 0 0 0 0 0 0.25 0"/>
<feBlend mode="normal" in2="BackgroundImageFix" result="effect1_dropShadow_175_286"/>
<feBlend mode="normal" in="SourceGraphic" in2="effect1_dropShadow_175_286" result="shape"/>
</filter>
</defs>
</svg>
