<svg width="20" height="20" viewBox="0 0 20 20" fill="none" xmlns="http://www.w3.org/2000/svg">
<path d="M4.99984 11.6667L6.20817 9.25C6.34731 8.97388 6.56051 8.74191 6.82394 8.58002C7.08737 8.41814 7.39064 8.33272 7.69984 8.33333H16.6665C16.9211 8.33289 17.1724 8.39078 17.4012 8.50257C17.63 8.61436 17.8301 8.77707 17.9861 8.97822C18.1422 9.17937 18.2502 9.41361 18.3017 9.66296C18.3531 9.91231 18.3468 10.1701 18.2832 10.4167L16.9915 15.4167C16.899 15.7749 16.6899 16.0922 16.3972 16.3185C16.1045 16.5448 15.7448 16.6673 15.3748 16.6667H3.33317C2.89114 16.6667 2.46722 16.4911 2.15466 16.1785C1.8421 15.866 1.6665 15.442 1.6665 15V4.16667C1.6665 3.25 2.4165 2.5 3.33317 2.5H6.60817C6.88268 2.50142 7.15259 2.57063 7.39392 2.70147C7.63525 2.83231 7.84052 3.02073 7.9915 3.25L8.67484 4.25C8.82582 4.47927 9.03109 4.66769 9.27242 4.79853C9.51375 4.92937 9.78366 4.99858 10.0582 5H14.9998C15.4419 5 15.8658 5.17559 16.1783 5.48816C16.4909 5.80072 16.6665 6.22464 16.6665 6.66667V8.33333" stroke="white" stroke-width="2" stroke-linecap="round" stroke-linejoin="round"/>
</svg>
