<svg width="25" height="23" viewBox="0 0 25 23" fill="none" xmlns="http://www.w3.org/2000/svg">
<path d="M4.03978 23H20.9479C23.6125 23 25 21.6217 25 18.9882V4.01177C25 1.37828 23.6125 0 20.9479 0H4.03978C1.38752 0 0 1.36597 0 4.01177V18.9882C0 21.6217 1.38752 23 4.03978 23ZM4.0275 20.5511C3.00835 20.5511 2.44352 20.0219 2.44352 18.939V7.61744C2.44352 6.53451 3.00835 6.00535 4.0275 6.00535H20.9602C21.9794 6.00535 22.5442 6.53451 22.5442 7.61744V18.939C22.5442 20.0219 21.9794 20.5511 20.9602 20.5511H4.0275ZM10.1302 10.2509H10.8546C11.2967 10.2509 11.444 10.1156 11.444 9.68486V8.9588C11.444 8.51578 11.2967 8.38042 10.8546 8.38042H10.1302C9.68811 8.38042 9.54077 8.51578 9.54077 8.9588V9.68486C9.54077 10.1156 9.68811 10.2509 10.1302 10.2509ZM14.1454 10.2509H14.8698C15.2996 10.2509 15.447 10.1156 15.447 9.68486V8.9588C15.447 8.51578 15.2996 8.38042 14.8698 8.38042H14.1454C13.7033 8.38042 13.556 8.51578 13.556 8.9588V9.68486C13.556 10.1156 13.7033 10.2509 14.1454 10.2509ZM18.1483 10.2509H18.8728C19.3148 10.2509 19.4622 10.1156 19.4622 9.68486V8.9588C19.4622 8.51578 19.3148 8.38042 18.8728 8.38042H18.1483C17.7186 8.38042 17.5712 8.51578 17.5712 8.9588V9.68486C17.5712 10.1156 17.7186 10.2509 18.1483 10.2509ZM6.12721 14.2135H6.83939C7.28143 14.2135 7.42878 14.0781 7.42878 13.6351V12.909C7.42878 12.4783 7.28143 12.343 6.83939 12.343H6.12721C5.68517 12.343 5.53782 12.4783 5.53782 12.909V13.6351C5.53782 14.0781 5.68517 14.2135 6.12721 14.2135ZM10.1302 14.2135H10.8546C11.2967 14.2135 11.444 14.0781 11.444 13.6351V12.909C11.444 12.4783 11.2967 12.343 10.8546 12.343H10.1302C9.68811 12.343 9.54077 12.4783 9.54077 12.909V13.6351C9.54077 14.0781 9.68811 14.2135 10.1302 14.2135ZM14.1454 14.2135H14.8698C15.2996 14.2135 15.447 14.0781 15.447 13.6351V12.909C15.447 12.4783 15.2996 12.343 14.8698 12.343H14.1454C13.7033 12.343 13.556 12.4783 13.556 12.909V13.6351C13.556 14.0781 13.7033 14.2135 14.1454 14.2135ZM18.1483 14.2135H18.8728C19.3148 14.2135 19.4622 14.0781 19.4622 13.6351V12.909C19.4622 12.4783 19.3148 12.343 18.8728 12.343H18.1483C17.7186 12.343 17.5712 12.4783 17.5712 12.909V13.6351C17.5712 14.0781 17.7186 14.2135 18.1483 14.2135ZM6.12721 18.1637H6.83939C7.28143 18.1637 7.42878 18.0284 7.42878 17.5976V16.8716C7.42878 16.4286 7.28143 16.2932 6.83939 16.2932H6.12721C5.68517 16.2932 5.53782 16.4286 5.53782 16.8716V17.5976C5.53782 18.0284 5.68517 18.1637 6.12721 18.1637ZM10.1302 18.1637H10.8546C11.2967 18.1637 11.444 18.0284 11.444 17.5976V16.8716C11.444 16.4286 11.2967 16.2932 10.8546 16.2932H10.1302C9.68811 16.2932 9.54077 16.4286 9.54077 16.8716V17.5976C9.54077 18.0284 9.68811 18.1637 10.1302 18.1637ZM14.1454 18.1637H14.8698C15.2996 18.1637 15.447 18.0284 15.447 17.5976V16.8716C15.447 16.4286 15.2996 16.2932 14.8698 16.2932H14.1454C13.7033 16.2932 13.556 16.4286 13.556 16.8716V17.5976C13.556 18.0284 13.7033 18.1637 14.1454 18.1637Z" fill="#84B4FC"/>
</svg>
